<svg width="28" height="43" viewBox="0 0 28 43" fill="none" xmlns="http://www.w3.org/2000/svg">
<path fill-rule="evenodd" clip-rule="evenodd" d="M16 27.8582C22.7846 26.8878 28 21.0529 28 14C28 6.26801 21.732 0 14 0C6.26801 0 0 6.26801 0 14C0 21.0529 5.21541 26.8878 12 27.8582L12 42.8L16 42.8L16 27.8582Z" fill="#CE1D6F"/>
<path d="M8.38748 5.58119C7.61255 4.80627 6.35614 4.80627 5.58121 5.58119C4.80627 6.35613 4.80627 7.61254 5.58121 8.38746L11.1937 14L5.5812 19.6125C4.80627 20.3875 4.80627 21.6439 5.5812 22.4188C6.35614 23.1937 7.61254 23.1937 8.38748 22.4188L14 16.8063L19.6125 22.4188C20.3875 23.1937 21.644 23.1937 22.4188 22.4188C23.1937 21.6439 23.1937 20.3875 22.4188 19.6125L16.8063 14L22.4188 8.38746C23.1937 7.61254 23.1937 6.35613 22.4188 5.58119C21.644 4.80627 20.3875 4.80627 19.6125 5.58119L14 11.1937L8.38748 5.58119Z" fill="white"/>
</svg>
